# xmcd
#
# Track frame offsets:
#	150
#	13645
#	22819
#	33888
#	44939
#	58140
#	68624
#	82368
#	92925
#	101841
#	110918
#	123143
#	136796
#	148850
#	159182
#	174384
#	184594
#	195029
#	202907
#	215585
#	227999
#	240210
#	250774
#	265232
#	278352
#	292277
#	305237
#	319824
#
# Disc length: 4533 seconds
#
# Revision: 0
# Processed by: cddbd v1.5.1PL2 Copyright (c) Steve Scherf et al.
# Submitted via: dBpowerAMP V4.0
#
DISCID=9411b31c
DTITLE=Percy Mayfield - His Tnagerine and Atlantic Sides
DYEAR=1974
DGENRE=Blues
TTITLE0=ha ha in the daytime
TTITLE1=never no more
TTITLE2=i reached for a tear
TTITLE3=memory pain
TTITLE4=never say naw
TTITLE5=life is suicide
TTITLE6=baby please (lost love)
TTITLE7=river's invitaion
TTITLE8=cookin' in style
TTITLE9=the hunt is on
TTITLE10=you don't exist anymore
TTITLE11=my jug and i
TTITLE12=stranger in my own home town
TTITLE13=way down home on the farm
TTITLE14=maybe it's because of love
TTITLE15=stand by
TTITLE16=fading love
TTITLE17=give me time to explain
TTITLE18=my bottle is my companion
TTITLE19=it's time to make a change
TTITLE20=we both must cry
TTITLE21=my love
TTITLE22=don't start lying to me
TTITLE23=long as you're mine
TTITLE24=ha ha in the daytime
TTITLE25=pretty-eyed baby
TTITLE26=i don't want to be president
TTITLE27=nothin' stays the same forever
EXTD=Rhino Handmade
EXTT0=
EXTT1=
EXTT2=
EXTT3=
EXTT4=
EXTT5=
EXTT6=
EXTT7=
EXTT8=
EXTT9=
EXTT10=
EXTT11=
EXTT12=
EXTT13=
EXTT14=
EXTT15=
EXTT16=
EXTT17=
EXTT18=
EXTT19=
EXTT20=
EXTT21=
EXTT22=
EXTT23=
EXTT24=
EXTT25=
EXTT26=
EXTT27=
PLAYORDER=
